<svg xmlns="http://www.w3.org/2000/svg" xmlns:xlink="http://www.w3.org/1999/xlink" width="500" zoomAndPan="magnify" viewBox="0 0 375 374.999991" height="500" preserveAspectRatio="xMidYMid meet" version="1.0"><defs><g/><clipPath id="86b9bc5183"><path d="M 118 7.953125 L 165 7.953125 L 165 97 L 118 97 Z M 118 7.953125 " clip-rule="nonzero"/></clipPath></defs><g clip-path="url(#86b9bc5183)"><path fill="#39d5ff" d="M 146.9375 39.230469 C 146.9375 39.230469 144.5625 74.453125 129.1875 90.476562 C 110.332031 71.289062 120.851562 43.085938 133.636719 25.273438 C 140.273438 16.03125 149.699219 7.945312 149.699219 7.945312 C 149.699219 7.945312 190.097656 82.371094 137.382812 96.835938 C 137.382812 96.835938 154.472656 74.738281 146.9375 39.230469 " fill-opacity="1" fill-rule="nonzero"/></g><path fill="#39d5ff" d="M 325.488281 206.246094 C 330.667969 266.382812 286.121094 319.332031 225.984375 324.523438 C 165.851562 329.707031 112.890625 285.164062 107.707031 225.023438 C 106.144531 206.886719 109.113281 189.40625 115.652344 173.691406 C 105.929688 192.371094 101.222656 213.945312 103.160156 236.480469 C 108.613281 299.648438 164.238281 346.441406 227.40625 340.992188 C 290.578125 335.542969 337.367188 279.917969 331.917969 216.753906 C 329.980469 194.214844 321.640625 173.765625 308.863281 157.03125 C 318 171.390625 323.917969 188.109375 325.488281 206.246094 " fill-opacity="1" fill-rule="nonzero"/><path fill="#39d5ff" d="M 79.566406 246.691406 C 69.355469 176.132812 118.277344 110.648438 188.839844 100.4375 C 200.382812 98.769531 230.691406 96.054688 253.542969 114.367188 C 219.242188 100.210938 176.175781 111.84375 168.03125 114.421875 C 176.5625 146.875 224.027344 148.886719 251.335938 147.324219 C 284.246094 145.445312 298.597656 157.03125 298.597656 157.03125 C 298.597656 157.03125 292.121094 107.011719 244.6875 86.503906 C 202.914062 68.4375 175.023438 95.859375 175.023438 95.859375 C 100.902344 106.585938 49.515625 175.367188 60.242188 249.488281 C 70.96875 323.609375 139.75 375 213.867188 364.269531 C 240.3125 360.449219 263.855469 349.226562 282.722656 333.019531 C 266.410156 344.773438 247.101562 352.886719 225.820312 355.96875 C 155.257812 366.175781 89.78125 317.257812 79.566406 246.691406 " fill-opacity="1" fill-rule="nonzero"/><path fill="#39d5ff" d="M 108.941406 245.550781 C 108.882812 245.414062 108.921875 245.316406 109.058594 245.257812 C 113.394531 243.410156 117.78125 241.699219 122.222656 240.121094 C 126.664062 238.542969 131.148438 237.101562 135.679688 235.800781 C 140.207031 234.496094 144.773438 233.335938 149.375 232.3125 C 153.976562 231.292969 158.605469 230.414062 163.257812 229.675781 C 167.914062 228.9375 172.585938 228.34375 177.277344 227.894531 C 181.96875 227.445312 186.671875 227.140625 191.378906 226.976562 C 196.089844 226.816406 200.800781 226.800781 205.511719 226.929688 C 210.222656 227.058594 214.925781 227.332031 219.621094 227.75 C 224.316406 228.167969 228.992188 228.726562 233.652344 229.433594 C 238.3125 230.136719 242.945312 230.984375 247.554688 231.976562 C 252.160156 232.964844 256.734375 234.09375 261.273438 235.367188 C 265.8125 236.636719 270.304688 238.046875 274.757812 239.59375 C 279.210938 241.140625 283.609375 242.824219 287.957031 244.640625 C 292.304688 246.457031 296.59375 248.40625 300.824219 250.488281 C 305.050781 252.570312 309.210938 254.777344 313.304688 257.117188 C 317.398438 259.453125 321.414062 261.914062 325.355469 264.496094 C 325.480469 264.578125 325.5 264.679688 325.421875 264.804688 L 301.308594 301.507812 C 301.226562 301.628906 301.125 301.652344 301.003906 301.570312 C 297.820312 299.484375 294.582031 297.5 291.277344 295.617188 C 287.976562 293.730469 284.617188 291.949219 281.207031 290.273438 C 277.792969 288.59375 274.335938 287.019531 270.828125 285.554688 C 267.316406 284.089844 263.769531 282.730469 260.175781 281.484375 C 256.585938 280.238281 252.957031 279.101562 249.296875 278.074219 C 245.632812 277.050781 241.945312 276.136719 238.226562 275.339844 C 234.507812 274.542969 230.769531 273.859375 227.011719 273.289062 C 223.25 272.71875 219.476562 272.269531 215.691406 271.929688 C 211.902344 271.59375 208.109375 271.375 204.308594 271.269531 C 200.507812 271.167969 196.707031 271.179688 192.90625 271.308594 C 189.105469 271.4375 185.3125 271.683594 181.527344 272.046875 C 177.742188 272.410156 173.972656 272.890625 170.21875 273.484375 C 166.460938 274.078125 162.730469 274.785156 159.015625 275.609375 C 155.304688 276.433594 151.621094 277.371094 147.964844 278.421875 C 144.3125 279.472656 140.691406 280.632812 137.109375 281.90625 C 133.527344 283.175781 129.984375 284.558594 126.488281 286.046875 C 126.351562 286.105469 126.253906 286.066406 126.195312 285.929688 Z M 108.941406 245.550781 " fill-opacity="1" fill-rule="nonzero"/><g fill="#000000" fill-opacity="1"><g transform="translate(121.887991, 276.47229)"><g><path d="M 14.390625 -23.421875 C 14.890625 -22.035156 15.03125 -20.65625 14.8125 -19.28125 C 14.59375 -17.914062 13.953125 -16.648438 12.890625 -15.484375 C 11.835938 -14.316406 10.34375 -13.382812 8.40625 -12.6875 L 4.8125 -11.390625 L 7.890625 -2.84375 L 2.109375 -0.765625 L -6.46875 -24.53125 L 2.90625 -27.90625 C 4.800781 -28.59375 6.519531 -28.84375 8.0625 -28.65625 C 9.601562 -28.476562 10.90625 -27.929688 11.96875 -27.015625 C 13.039062 -26.109375 13.847656 -24.910156 14.390625 -23.421875 Z M 6.296875 -17.125 C 7.410156 -17.519531 8.144531 -18.078125 8.5 -18.796875 C 8.851562 -19.515625 8.859375 -20.347656 8.515625 -21.296875 C 8.171875 -22.234375 7.632812 -22.863281 6.90625 -23.1875 C 6.175781 -23.507812 5.253906 -23.472656 4.140625 -23.078125 L 1 -21.9375 L 3.15625 -15.984375 Z M 6.296875 -17.125 "/></g></g></g><g fill="#000000" fill-opacity="1"><g transform="translate(141.587414, 269.082821)"><g><path d="M 13.890625 -2.90625 C 11.578125 -2.375 9.328125 -2.425781 7.140625 -3.0625 C 4.960938 -3.707031 3.085938 -4.863281 1.515625 -6.53125 C -0.0546875 -8.207031 -1.117188 -10.25 -1.671875 -12.65625 C -2.222656 -15.070312 -2.144531 -17.363281 -1.4375 -19.53125 C -0.738281 -21.707031 0.453125 -23.550781 2.140625 -25.0625 C 3.828125 -26.582031 5.828125 -27.609375 8.140625 -28.140625 C 10.460938 -28.660156 12.707031 -28.601562 14.875 -27.96875 C 17.050781 -27.332031 18.910156 -26.1875 20.453125 -24.53125 C 22.003906 -22.875 23.054688 -20.835938 23.609375 -18.421875 C 24.160156 -16.015625 24.09375 -13.710938 23.40625 -11.515625 C 22.71875 -9.328125 21.539062 -7.472656 19.875 -5.953125 C 18.207031 -4.441406 16.210938 -3.425781 13.890625 -2.90625 Z M 12.640625 -8.375 C 14.597656 -8.820312 16.019531 -9.832031 16.90625 -11.40625 C 17.789062 -12.988281 17.988281 -14.859375 17.5 -17.015625 C 17.007812 -19.191406 16.019531 -20.796875 14.53125 -21.828125 C 13.050781 -22.859375 11.332031 -23.148438 9.375 -22.703125 C 7.382812 -22.242188 5.941406 -21.234375 5.046875 -19.671875 C 4.160156 -18.117188 3.96875 -16.242188 4.46875 -14.046875 C 4.96875 -11.867188 5.957031 -10.265625 7.4375 -9.234375 C 8.914062 -8.203125 10.648438 -7.914062 12.640625 -8.375 Z M 12.640625 -8.375 "/></g></g></g><g fill="#000000" fill-opacity="1"><g transform="translate(167.950132, 263.313675)"><g><path d="M 7.78125 -5.671875 L 15.796875 -6.609375 L 16.34375 -1.890625 L 2.21875 -0.25 L -0.671875 -25.34375 L 5.4375 -26.046875 Z M 7.78125 -5.671875 "/></g></g></g><g fill="#000000" fill-opacity="1"><g transform="translate(183.819398, 261.250667)"><g><path d="M 23.515625 -25.625 L 15.03125 -8.59375 L 15.15625 -0.234375 L 9 -0.140625 L 8.875 -8.5 L -0.140625 -25.265625 L 6.84375 -25.375 L 11.90625 -14.875 L 16.59375 -25.53125 Z M 23.515625 -25.625 "/></g></g></g><g fill="#000000" fill-opacity="1"><g transform="translate(206.718199, 260.951292)"><g><path d="M 20.890625 -23.46875 L 20.4375 -18.578125 L 10.1875 -19.515625 L 9.71875 -14.203125 L 17.390625 -13.5 L 16.953125 -8.71875 L 9.28125 -9.421875 L 8.359375 0.75 L 2.21875 0.203125 L 4.5 -24.953125 Z M 20.890625 -23.46875 "/></g></g></g><g fill="#000000" fill-opacity="1"><g transform="translate(225.055742, 262.345053)"><g><path d="M 18.5 -0.78125 L 9.25 -2.671875 L 6.875 1.40625 L 0.5625 0.109375 L 14.5625 -22.8125 L 21.546875 -21.375 L 25.453125 5.203125 L 19.078125 3.890625 Z M 17.890625 -5.75 L 16.671875 -15.4375 L 11.796875 -7 Z M 17.890625 -5.75 "/></g></g></g><g fill="#000000" fill-opacity="1"><g transform="translate(249.657034, 267.372614)"><g><path d="M 14.34375 4.78125 L 12.375 -5.953125 L 10.96875 -6.40625 L 7.953125 2.65625 L 2.125 0.703125 L 10.109375 -23.265625 L 19.90625 -20 C 21.789062 -19.363281 23.289062 -18.492188 24.40625 -17.390625 C 25.519531 -16.296875 26.210938 -15.0625 26.484375 -13.6875 C 26.765625 -12.320312 26.671875 -10.929688 26.203125 -9.515625 C 25.671875 -7.921875 24.75 -6.644531 23.4375 -5.6875 C 22.125 -4.738281 20.503906 -4.300781 18.578125 -4.375 L 20.9375 6.96875 Z M 12.34375 -10.515625 L 15.96875 -9.3125 C 17.03125 -8.957031 17.921875 -8.953125 18.640625 -9.296875 C 19.359375 -9.648438 19.875 -10.304688 20.1875 -11.265625 C 20.488281 -12.171875 20.457031 -12.972656 20.09375 -13.671875 C 19.726562 -14.378906 19.015625 -14.910156 17.953125 -15.265625 L 14.328125 -16.46875 Z M 12.34375 -10.515625 "/></g></g></g><g fill="#000000" fill-opacity="1"><g transform="translate(270.574377, 273.885195)"><g><path d="M 38.84375 -9.03125 L 27.6875 13.640625 L 22.15625 10.90625 L 28.859375 -2.6875 L 17.09375 8.421875 L 12.625 6.21875 L 14.234375 -9.921875 L 7.53125 3.703125 L 2 0.984375 L 13.15625 -21.6875 L 19.671875 -18.46875 L 18.328125 0.34375 L 32.34375 -12.234375 Z M 38.84375 -9.03125 "/></g></g></g><g fill="#000000" fill-opacity="1"><g transform="translate(298.902927, 288.466323)"><g/></g></g></svg>